<svg width="1200" height="760" viewBox="0 0 1200 760" fill="none" xmlns="http://www.w3.org/2000/svg">
  <defs>
    <linearGradient id="bg2" x1="0" y1="0" x2="1200" y2="760" gradientUnits="userSpaceOnUse">
      <stop stop-color="#F5F3FF"/>
      <stop offset="0.38" stop-color="#DDD6FE"/>
      <stop offset="0.7" stop-color="#A78BFA"/>
      <stop offset="1" stop-color="#5B21B6"/>
    </linearGradient>
  </defs>
  <rect width="1200" height="760" fill="url(#bg2)"/>
  <rect x="70" y="46" width="1060" height="668" rx="34" fill="rgba(255,255,255,0.18)" stroke="rgba(255,255,255,0.45)"/>
  <rect x="110" y="86" width="132" height="42" rx="16" fill="rgba(255,255,255,0.22)"/>
  <text x="164" y="112" text-anchor="middle" fill="#1F2937" font-size="20" font-family="Segoe UI, Arial, sans-serif" font-weight="700">Back</text>
  <rect x="300" y="86" width="300" height="72" rx="18" fill="rgba(255,255,255,0.18)"/>
  <text x="390" y="108" fill="#1F2937" font-size="15" font-family="Segoe UI, Arial, sans-serif" font-weight="700">Language / மொழி</text>
  <text x="392" y="142" fill="#1F2937" font-size="16" font-family="Segoe UI, Arial, sans-serif" font-weight="700">English  /  தமிழ்</text>
  <rect x="960" y="86" width="120" height="52" rx="16" fill="rgba(255,255,255,0.18)"/>
  <text x="1020" y="118" text-anchor="middle" fill="#1F2937" font-size="18" font-family="Segoe UI, Arial, sans-serif" font-weight="700">⚙ Settings</text>

  <rect x="170" y="190" width="860" height="460" rx="30" fill="rgba(255,255,255,0.16)" stroke="rgba(255,255,255,0.28)"/>
  <rect x="220" y="228" width="110" height="34" rx="17" fill="rgba(255,255,255,0.24)"/>
  <text x="275" y="250" text-anchor="middle" fill="#5B21B6" font-size="15" font-family="Segoe UI, Arial, sans-serif" font-weight="800">குறள் 1</text>
  <rect x="782" y="222" width="176" height="42" rx="20" fill="rgba(255,255,255,0.24)"/>
  <text x="870" y="250" text-anchor="middle" fill="#5B21B6" font-size="17" font-family="Segoe UI, Arial, sans-serif" font-weight="800">Show English</text>

  <text x="220" y="340" fill="#1F2937" font-size="34" font-family="Segoe UI, Arial, sans-serif" font-weight="800">அறத்தாறு இதியம் ...</text>
  <text x="220" y="390" fill="#1F2937" font-size="34" font-family="Segoe UI, Arial, sans-serif" font-weight="800">எப்பொருள் யார்யார் ...</text>

  <rect x="220" y="430" width="820" height="58" rx="18" fill="rgba(255,255,255,0.18)"/>
  <text x="250" y="468" fill="#1F2937" font-size="20" font-family="Segoe UI, Arial, sans-serif" font-weight="800">Meaning of this Kural</text>
  <text x="1010" y="468" fill="#5B21B6" font-size="18" font-family="Segoe UI, Arial, sans-serif" font-weight="800">English</text>

  <rect x="220" y="510" width="820" height="90" rx="18" fill="rgba(255,255,255,0.12)"/>
  <text x="250" y="560" fill="#4B5563" font-size="20" font-family="Segoe UI, Arial, sans-serif" font-weight="500">The meaning of this Kural explains the value of virtue and righteous living.</text>
</svg>
